<svg version="1.1" xmlns="http://www.w3.org/2000/svg" viewBox="0 0 660 576" width="1320" height="1152"><!-- svg-source:excalidraw --><metadata/><defs><style class="style-fonts">
      </style></defs><rect x="0" y="0" width="660" height="576" fill="#ffffff"/><g stroke-linecap="round" transform="translate(10 10) rotate(0 320 278)"><path d="M0 0 L640 0 L640 556 L0 556" stroke="none" stroke-width="0" fill="#f8fafc"/><path d="M0 0 C179.33 0, 358.66 0, 640 0 M0 0 C225.58 0, 451.16 0, 640 0 M640 0 C640 206.53, 640 413.06, 640 556 M640 0 C640 219, 640 438, 640 556 M640 556 C410.03 556, 180.07 556, 0 556 M640 556 C446.58 556, 253.16 556, 0 556 M0 556 C0 340.94, 0 125.89, 0 0 M0 556 C0 397.12, 0 238.23, 0 0" stroke="#334155" stroke-width="2" fill="none"/></g><g transform="translate(50 22) rotate(0 90.234375 11.5)"><text x="0" y="16.900390625" font-family="Helvetica, Segoe UI Emoji" font-size="20px" fill="#1e293b" text-anchor="start" style="white-space: pre;" direction="ltr" dominant-baseline="alphabetic">InsightWave Plugins</text></g><g transform="translate(50 48) rotate(0 75.48583984375 8.050000000000011)"><text x="0" y="11.830273437499999" font-family="Helvetica, Segoe UI Emoji" font-size="14px" fill="#64748b" text-anchor="start" style="white-space: pre;" direction="ltr" dominant-baseline="alphabetic">open-source · AGPL-3.0</text></g><g stroke-linecap="round" transform="translate(30 82) rotate(0 300 28)"><path d="M0 0 L600 0 L600 56 L0 56" stroke="none" stroke-width="0" fill="#bbf7d0"/><path d="M0 0 C225.27 0, 450.54 0, 600 0 M0 0 C128.42 0, 256.84 0, 600 0 M600 0 C600 21.04, 600 42.08, 600 56 M600 0 C600 13.14, 600 26.28, 600 56 M600 56 C370.29 56, 140.59 56, 0 56 M600 56 C411.98 56, 223.95 56, 0 56 M0 56 C0 44.58, 0 33.16, 0 0 M0 56 C0 35.55, 0 15.09, 0 0" stroke="#166534" stroke-width="1" fill="none"/></g><g transform="translate(42 90) rotate(0 52.32421875 9.199999999999989)"><text x="0" y="13.5203125" font-family="Helvetica, Segoe UI Emoji" font-size="16px" fill="#1e293b" text-anchor="start" style="white-space: pre;" direction="ltr" dominant-baseline="alphabetic">Cogni-Website</text></g><g transform="translate(42 112) rotate(0 141.3046875 6.900000000000006)"><text x="0" y="10.140234374999999" font-family="Helvetica, Segoe UI Emoji" font-size="12px" fill="#64748b" text-anchor="start" style="white-space: pre;" direction="ltr" dominant-baseline="alphabetic">Website generation from portfolio and marketing data</text></g><g stroke-linecap="round" transform="translate(30 150) rotate(0 145 28)"><path d="M0 0 L290 0 L290 56 L0 56" stroke="none" stroke-width="0" fill="#bbf7d0"/><path d="M0 0 C66.51 0, 133.03 0, 290 0 M0 0 C104.94 0, 209.88 0, 290 0 M290 0 C290 22.03, 290 44.06, 290 56 M290 0 C290 13.63, 290 27.27, 290 56 M290 56 C179.79 56, 69.58 56, 0 56 M290 56 C175.71 56, 61.41 56, 0 56 M0 56 C0 39.24, 0 22.47, 0 0 M0 56 C0 42.94, 0 29.87, 0 0" stroke="#166534" stroke-width="1" fill="none"/></g><g transform="translate(42 158) rotate(0 58.69140625 9.199999999999989)"><text x="0" y="13.5203125" font-family="Helvetica, Segoe UI Emoji" font-size="16px" fill="#1e293b" text-anchor="start" style="white-space: pre;" direction="ltr" dominant-baseline="alphabetic">Cogni-Marketing</text></g><g transform="translate(42 180) rotate(0 111.0556640625 6.899999999999977)"><text x="0" y="10.140234374999999" font-family="Helvetica, Segoe UI Emoji" font-size="12px" fill="#64748b" text-anchor="start" style="white-space: pre;" direction="ltr" dominant-baseline="alphabetic">Content pipeline across all GTM channels</text></g><g stroke-linecap="round" transform="translate(340 150) rotate(0 145 28)"><path d="M0 0 L290 0 L290 56 L0 56" stroke="none" stroke-width="0" fill="#bbf7d0"/><path d="M0 0 C84.33 0, 168.66 0, 290 0 M0 0 C77.71 0, 155.42 0, 290 0 M290 0 C290 19.2, 290 38.4, 290 56 M290 0 C290 20.94, 290 41.89, 290 56 M290 56 C207.18 56, 124.35 56, 0 56 M290 56 C190.44 56, 90.88 56, 0 56 M0 56 C0 42.02, 0 28.04, 0 0 M0 56 C0 37.01, 0 18.01, 0 0" stroke="#166534" stroke-width="1" fill="none"/></g><g transform="translate(352 158) rotate(0 43.578125 9.199999999999989)"><text x="0" y="13.5203125" font-family="Helvetica, Segoe UI Emoji" font-size="16px" fill="#1e293b" text-anchor="start" style="white-space: pre;" direction="ltr" dominant-baseline="alphabetic">Cogni-Sales</text></g><g transform="translate(352 180) rotate(0 136.9716796875 6.899999999999977)"><text x="0" y="10.140234374999999" font-family="Helvetica, Segoe UI Emoji" font-size="12px" fill="#64748b" text-anchor="start" style="white-space: pre;" direction="ltr" dominant-baseline="alphabetic">Sales pitches using Corporate Visions methodology</text></g><g stroke-linecap="round" transform="translate(30 218) rotate(0 300 28)"><path d="M0 0 L600 0 L600 56 L0 56" stroke="none" stroke-width="0" fill="#bbf7d0"/><path d="M0 0 C135.28 0, 270.55 0, 600 0 M0 0 C153.36 0, 306.72 0, 600 0 M600 0 C600 17.75, 600 35.5, 600 56 M600 0 C600 18.09, 600 36.19, 600 56 M600 56 C405.96 56, 211.92 56, 0 56 M600 56 C428.25 56, 256.51 56, 0 56 M0 56 C0 39.73, 0 23.46, 0 0 M0 56 C0 38.82, 0 21.63, 0 0" stroke="#166534" stroke-width="1" fill="none"/></g><g transform="translate(42 226) rotate(0 48.171875 9.199999999999989)"><text x="0" y="13.5203125" font-family="Helvetica, Segoe UI Emoji" font-size="16px" fill="#1e293b" text-anchor="start" style="white-space: pre;" direction="ltr" dominant-baseline="alphabetic">Cogni-Trends</text></g><g transform="translate(42 248) rotate(0 241.4501953125 6.899999999999977)"><text x="0" y="10.140234374999999" font-family="Helvetica, Segoe UI Emoji" font-size="12px" fill="#64748b" text-anchor="start" style="white-space: pre;" direction="ltr" dominant-baseline="alphabetic">TIPS trend intelligence — from industry trends to investment themes and solution portfolios</text></g><g stroke-linecap="round" transform="translate(30 286) rotate(0 300 28)"><path d="M0 0 L600 0 L600 56 L0 56" stroke="none" stroke-width="0" fill="#bbf7d0"/><path d="M0 0 C163.02 0, 326.03 0, 600 0 M0 0 C158.91 0, 317.82 0, 600 0 M600 0 C600 20.55, 600 41.11, 600 56 M600 0 C600 11.22, 600 22.44, 600 56 M600 56 C465.78 56, 331.57 56, 0 56 M600 56 C373.98 56, 147.97 56, 0 56 M0 56 C0 43.27, 0 30.54, 0 0 M0 56 C0 35.04, 0 14.08, 0 0" stroke="#166534" stroke-width="1" fill="none"/></g><g transform="translate(42 294) rotate(0 52.9140625 9.199999999999989)"><text x="0" y="13.5203125" font-family="Helvetica, Segoe UI Emoji" font-size="16px" fill="#1e293b" text-anchor="start" style="white-space: pre;" direction="ltr" dominant-baseline="alphabetic">Cogni-Portfolio</text></g><g transform="translate(42 316) rotate(0 130.0576171875 6.899999999999977)"><text x="0" y="10.140234374999999" font-family="Helvetica, Segoe UI Emoji" font-size="12px" fill="#64748b" text-anchor="start" style="white-space: pre;" direction="ltr" dominant-baseline="alphabetic">Structured portfolio messaging for target markets</text></g><g stroke-linecap="round" transform="translate(30 354) rotate(0 300 28)"><path d="M0 0 L600 0 L600 56 L0 56" stroke="none" stroke-width="0" fill="#bbf7d0"/><path d="M0 0 C184.86 0, 369.72 0, 600 0 M0 0 C176.04 0, 352.09 0, 600 0 M600 0 C600 15.07, 600 30.14, 600 56 M600 0 C600 14.47, 600 28.94, 600 56 M600 56 C451.56 56, 303.12 56, 0 56 M600 56 C464.28 56, 328.56 56, 0 56 M0 56 C0 33.99, 0 11.98, 0 0 M0 56 C0 42.99, 0 29.98, 0 0" stroke="#166534" stroke-width="1" fill="none"/></g><g transform="translate(42 362) rotate(0 61.3671875 9.199999999999989)"><text x="0" y="13.5203125" font-family="Helvetica, Segoe UI Emoji" font-size="16px" fill="#1e293b" text-anchor="start" style="white-space: pre;" direction="ltr" dominant-baseline="alphabetic">Cogni-Consult</text></g><g transform="translate(42 384) rotate(0 141.41015625 6.899999999999977)"><text x="0" y="10.140234374999999" font-family="Helvetica, Segoe UI Emoji" font-size="12px" fill="#64748b" text-anchor="start" style="white-space: pre;" direction="ltr" dominant-baseline="alphabetic">Consulting engagements as an action-fields WBS</text></g><g stroke-linecap="round" transform="translate(30 422) rotate(0 300 28)"><path d="M0 0 L600 0 L600 56 L0 56" stroke="none" stroke-width="0" fill="#bbf7d0"/><path d="M0 0 C236.33 0, 472.66 0, 600 0 M0 0 C215.59 0, 431.18 0, 600 0 M600 0 C600 16.92, 600 33.85, 600 56 M600 0 C600 21.66, 600 43.32, 600 56 M600 56 C428.54 56, 257.09 56, 0 56 M600 56 C450.6 56, 301.2 56, 0 56 M0 56 C0 38.29, 0 20.58, 0 0 M0 56 C0 38.53, 0 21.06, 0 0" stroke="#166534" stroke-width="1" fill="none"/></g><g transform="translate(42 430) rotate(0 57.8046875 9.199999999999989)"><text x="0" y="13.5203125" font-family="Helvetica, Segoe UI Emoji" font-size="16px" fill="#1e293b" text-anchor="start" style="white-space: pre;" direction="ltr" dominant-baseline="alphabetic">Cogni-Research</text></g><g transform="translate(42 452) rotate(0 145.412109375 6.899999999999977)"><text x="0" y="10.140234374999999" font-family="Helvetica, Segoe UI Emoji" font-size="12px" fill="#64748b" text-anchor="start" style="white-space: pre;" direction="ltr" dominant-baseline="alphabetic">Evidence-based deep research with source verification</text></g><g stroke-linecap="round" transform="translate(30 490) rotate(0 300 28)"><path d="M0 0 L600 0 L600 56 L0 56" stroke="none" stroke-width="0" fill="#bbf7d0"/><path d="M0 0 C140.79 0, 281.59 0, 600 0 M0 0 C229.71 0, 459.41 0, 600 0 M600 0 C600 17.55, 600 35.1, 600 56 M600 0 C600 11.42, 600 22.84, 600 56 M600 56 C380.85 56, 161.7 56, 0 56 M600 56 C436.82 56, 273.64 56, 0 56 M0 56 C0 44.03, 0 32.06, 0 0 M0 56 C0 43.27, 0 30.53, 0 0" stroke="#166534" stroke-width="1" fill="none"/></g><g transform="translate(42 498) rotate(0 109.3828125 9.199999999999989)"><text x="0" y="13.5203125" font-family="Helvetica, Segoe UI Emoji" font-size="16px" fill="#1e293b" text-anchor="start" style="white-space: pre;" direction="ltr" dominant-baseline="alphabetic">Claude Platform &amp; Cogni-Tools</text></g><g transform="translate(42 520) rotate(0 121.04296875 6.899999999999977)"><text x="0" y="10.140234374999999" font-family="Helvetica, Segoe UI Emoji" font-size="12px" fill="#64748b" text-anchor="start" style="white-space: pre;" direction="ltr" dominant-baseline="alphabetic">Platform infrastructure for all plugin workflows</text></g></svg>